<?xml version="1.0" encoding="UTF-8" standalone="no"?> <svg width="48" height="48" viewBox="0 0 48 48" fill="none" xmlns="http://www.w3.org/2000/svg">
<path d="M36 45H12C10.9391 45 9.92172 44.5786 9.17157 43.8284C8.42143 43.0783 8 42.0609 8 41V7C8 5.93913 8.42143 4.92172 9.17157 4.17157C9.92172 3.42143 10.9391 3 12 3H29.38C29.9068 2.99998 30.4285 3.10403 30.915 3.30619C31.4015 3.50835 31.8433 3.80462 32.215 4.178L38.835 10.83C39.5812 11.5796 40 12.5943 40 13.652V41C40 42.0609 39.5786 43.0783 38.8284 43.8284C38.0783 44.5786 37.0609 45 36 45Z" fill="#EAEFF0"/>
<path d="M9.014 4.36279C8.36392 5.08762 8.00303 6.02616 8 6.99979V40.9998C8 42.0607 8.42143 43.0781 9.17157 43.8282C9.92172 44.5784 10.9391 44.9998 12 44.9998H36C36.9358 44.9965 37.8402 44.6621 38.553 44.0558L9.014 4.36279Z" fill="#D9E1E2"/>
<path d="M38.835 10.8301L32.215 4.17805C31.8647 3.82978 31.4527 3.54968 31 3.35205V10.0001C31 10.5305 31.2107 11.0392 31.5858 11.4143C31.9609 11.7893 32.4696 12.0001 33 12.0001H39.631C39.4373 11.5658 39.1678 11.1696 38.835 10.8301V10.8301Z" fill="#8FA5A5"/>
<path d="M39.544 10.124L32.924 3.47302C32.4606 3.00461 31.9085 2.63313 31.3001 2.38024C30.6916 2.12735 30.0389 1.9981 29.38 2.00002H12C10.6744 2.00161 9.40356 2.5289 8.46622 3.46624C7.52888 4.40358 7.00159 5.67443 7 7.00002V41C7.00159 42.3256 7.52888 43.5965 8.46622 44.5338C9.40356 45.4711 10.6744 45.9984 12 46H36C37.3256 45.9984 38.5964 45.4711 39.5338 44.5338C40.4711 43.5965 40.9984 42.3256 41 41V13.651C41.0014 12.9962 40.8734 12.3476 40.6236 11.7424C40.3737 11.1371 40.0069 10.5872 39.544 10.124V10.124ZM37.594 11H33C32.7348 11 32.4804 10.8947 32.2929 10.7071C32.1054 10.5196 32 10.2652 32 10V5.38002L37.594 11ZM39 41C39 41.7957 38.6839 42.5587 38.1213 43.1213C37.5587 43.684 36.7956 44 36 44H12C11.2044 44 10.4413 43.684 9.87868 43.1213C9.31607 42.5587 9 41.7957 9 41V7.00002C9 6.20437 9.31607 5.44131 9.87868 4.8787C10.4413 4.31609 11.2044 4.00002 12 4.00002H29.38C29.5884 4.00056 29.7963 4.02301 30 4.06702V10C30 10.7957 30.3161 11.5587 30.8787 12.1213C31.4413 12.684 32.2044 13 33 13H38.923C38.9724 13.2136 38.9982 13.4319 39 13.651V41Z" fill="black"/>
<path d="M34 18H17C16.7348 18 16.4804 18.1054 16.2929 18.2929C16.1054 18.4804 16 18.7348 16 19C16 19.2652 16.1054 19.5196 16.2929 19.7071C16.4804 19.8946 16.7348 20 17 20H34C34.2652 20 34.5196 19.8946 34.7071 19.7071C34.8946 19.5196 35 19.2652 35 19C35 18.7348 34.8946 18.4804 34.7071 18.2929C34.5196 18.1054 34.2652 18 34 18Z" fill="black"/>
<path d="M34 23H14C13.7348 23 13.4804 23.1054 13.2929 23.2929C13.1054 23.4804 13 23.7348 13 24C13 24.2652 13.1054 24.5196 13.2929 24.7071C13.4804 24.8946 13.7348 25 14 25H34C34.2652 25 34.5196 24.8946 34.7071 24.7071C34.8946 24.5196 35 24.2652 35 24C35 23.7348 34.8946 23.4804 34.7071 23.2929C34.5196 23.1054 34.2652 23 34 23Z" fill="black"/>
<path d="M34 28H14C13.7348 28 13.4804 28.1054 13.2929 28.2929C13.1054 28.4804 13 28.7348 13 29C13 29.2652 13.1054 29.5196 13.2929 29.7071C13.4804 29.8946 13.7348 30 14 30H34C34.2652 30 34.5196 29.8946 34.7071 29.7071C34.8946 29.5196 35 29.2652 35 29C35 28.7348 34.8946 28.4804 34.7071 28.2929C34.5196 28.1054 34.2652 28 34 28Z" fill="black"/>
<path d="M34 33H14C13.7348 33 13.4804 33.1054 13.2929 33.2929C13.1054 33.4804 13 33.7348 13 34C13 34.2652 13.1054 34.5196 13.2929 34.7071C13.4804 34.8946 13.7348 35 14 35H34C34.2652 35 34.5196 34.8946 34.7071 34.7071C34.8946 34.5196 35 34.2652 35 34C35 33.7348 34.8946 33.4804 34.7071 33.2929C34.5196 33.1054 34.2652 33 34 33Z" fill="black"/>
<path d="M29 38H14C13.7348 38 13.4804 38.1054 13.2929 38.2929C13.1054 38.4804 13 38.7348 13 39C13 39.2652 13.1054 39.5196 13.2929 39.7071C13.4804 39.8946 13.7348 40 14 40H29C29.2652 40 29.5196 39.8946 29.7071 39.7071C29.8946 39.5196 30 39.2652 30 39C30 38.7348 29.8946 38.4804 29.7071 38.2929C29.5196 38.1054 29.2652 38 29 38Z" fill="black"/>
<path d="M13.8998 14.4468L14.4558 13.3328H17.5558L18.1118 14.4468C18.1705 14.5644 18.2517 14.6692 18.351 14.7553C18.4502 14.8414 18.5654 14.9072 18.69 14.9488C18.8146 14.9904 18.9462 15.007 19.0772 14.9978C19.2083 14.9885 19.3362 14.9535 19.4538 14.8948C19.5713 14.8361 19.6761 14.7548 19.7622 14.6556C19.8484 14.5564 19.9141 14.4412 19.9557 14.3166C19.9973 14.192 20.014 14.0604 20.0047 13.9294C19.9954 13.7983 19.9605 13.6704 19.9018 13.5528L16.9018 7.55282C16.8094 7.39785 16.6783 7.26952 16.5214 7.1804C16.3645 7.09129 16.1872 7.04443 16.0068 7.04443C15.8263 7.04443 15.649 7.09129 15.4921 7.1804C15.3352 7.26952 15.2042 7.39785 15.1118 7.55282L12.1118 13.5528C12.0531 13.6704 12.0181 13.7983 12.0088 13.9294C11.9996 14.0604 12.0162 14.192 12.0578 14.3166C12.1418 14.5683 12.3224 14.7763 12.5598 14.8948C12.7971 15.0134 13.0719 15.0328 13.3235 14.9488C13.4482 14.9072 13.5634 14.8414 13.6626 14.7553C13.7618 14.6692 13.8431 14.5644 13.9018 14.4468H13.8998ZM16.5538 11.3328H15.4538L16.0028 10.2328L16.5538 11.3328Z" fill="black"/>
<path d="M20.5 11.5H21V12C21 12.2652 21.1054 12.5196 21.2929 12.7071C21.4804 12.8946 21.7348 13 22 13C22.2652 13 22.5196 12.8946 22.7071 12.7071C22.8946 12.5196 23 12.2652 23 12V11.5H23.5C23.7652 11.5 24.0196 11.3946 24.2071 11.2071C24.3946 11.0196 24.5 10.7652 24.5 10.5C24.5 10.2348 24.3946 9.98043 24.2071 9.79289C24.0196 9.60536 23.7652 9.5 23.5 9.5H23V9C23 8.73478 22.8946 8.48043 22.7071 8.29289C22.5196 8.10536 22.2652 8 22 8C21.7348 8 21.4804 8.10536 21.2929 8.29289C21.1054 8.48043 21 8.73478 21 9V9.5H20.5C20.2348 9.5 19.9804 9.60536 19.7929 9.79289C19.6054 9.98043 19.5 10.2348 19.5 10.5C19.5 10.7652 19.6054 11.0196 19.7929 11.2071C19.9804 11.3946 20.2348 11.5 20.5 11.5Z" fill="black"/>
</svg>
